Coordinates
version=1
nRows=8
nColumns=33
inDegrees=yes

Units are S.I. units (second, meters, Newtons, ...)
Angles are in degrees.

endheader
time	ground_thorax_rot_x	ground_thorax_rot_y	ground_thorax_rot_z	ground_thorax_tx	ground_thorax_ty	ground_thorax_tz	clav_prot_r	clav_elev_r	scapula_abduction_r	scapula_elevation_r	scapula_upward_rot_r	scapula_winging_r	shoulder_elv_r	plane_of_elev_r	axial_rot_r	elbow_flexion_r	pro_sup_r	wrist_flex_r	wrist_dev_r	clav_prot_l	clav_elev_l	scapula_abduction_l	scapula_elevation_l	scapula_upward_rot_l	scapula_winging_l	shoulder_elv_l	plane_of_elev_l	axial_rot_l	elbow_flexion_l	pro_sup_l	wrist_flex_l	wrist_dev_l
      1.94000000	      1.86115848	      6.37673955	     -5.75175159	     -0.14234241	      1.00305184	      0.00898017	    -20.07955482	    -10.85429337	    -24.71208462	     -7.66912446	     11.11848384	      2.69474045	     62.67081847	    -44.66691248	     54.57872989	     87.18963155	      2.63850000	     15.39432977	      4.95404837	     -0.91932955	     -2.30691501	     -2.35227399	     -3.99261797	     -0.47284204	      1.01466392	     43.79296255	    -47.14179643	    -17.25934568	     88.46432237	      5.54777254	      3.84748440	    -10.93240346
      1.95000000	      1.76958279	      6.41369946	     -5.68015064	     -0.14256495	      1.00280421	      0.00885512	    -20.01083086	    -10.87461201	    -24.77522736	     -7.58259958	     10.81296212	      2.77480946	     62.08280509	    -44.03200982	     53.63087812	     86.94446712	      1.64889732	     14.29456835	      5.74150091	     -0.85152629	     -2.25712643	     -2.41991549	     -4.08038408	     -0.57919315	      1.03964049	     43.92852183	    -46.54463502	    -17.08367018	     88.58685866	      4.77357674	      4.78889323	     -9.69066355
      1.96000000	      1.77273597	      6.40819177	     -5.64475746	     -0.14260777	      1.00285574	      0.00880439	    -19.98855532	    -11.03283573	    -24.80981014	     -7.67040073	     10.64190349	      2.89365261	     61.70378926	    -43.52232895	     52.90555334	     86.68382443	      1.09162057	     13.55260177	      6.24481539	     -0.83418277	     -2.38409753	     -2.42293523	     -4.01494019	     -0.70421589	      0.99398246	     43.99945593	    -45.96131281	    -16.83515808	     88.51622340	      4.16747807	      5.34294643	     -8.80750287
      1.97000000	      1.83774227	      6.42167523	     -5.65793400	     -0.14253344	      1.00315554	      0.00876140	    -20.00959103	    -11.34811860	    -24.80011192	     -7.95562217	     10.62216986	      3.05958003	     61.46439967	    -43.21373117	     52.36998765	     86.42301449	      0.93041757	     13.21382552	      6.36130589	     -0.84356751	     -2.63494671	     -2.46750282	     -3.78096658	     -0.68951359	      0.95471526	     43.96541415	    -45.47229398	    -16.63896963	     88.21866067	      3.99218009	      5.49527170	     -8.47561763
      1.98000000	      1.73699216	      6.45801377	     -5.58497318	     -0.14276517	      1.00287884	      0.00868507	    -19.91422113	    -11.34731862	    -24.81456729	     -7.85198400	     10.32799095	      3.12590424	     60.74347564	    -42.52341228	     51.23446976	     86.08364764	      0.27171087	     11.81236107	      7.30290402	     -0.76694459	     -2.55996670	     -2.53964237	     -3.89415415	     -0.80119948	      0.97591398	     44.11543836	    -44.71168243	    -16.49814806	     88.21408134	      3.12331455	      6.42577046	     -7.17523739
      1.99000000	      1.81162230	      6.44227649	     -5.59377689	     -0.14267827	      1.00321770	      0.00864871	    -19.91697033	    -11.69282370	    -24.76660656	     -8.16677346	     10.31451392	      3.31034512	     60.49010401	    -42.15539564	     50.70963198	     85.71228401	      0.12740562	     11.45089309	      7.44803801	     -0.77139747	     -2.84721894	     -2.58556434	     -3.63842273	     -0.81535392	      0.92127242	     44.05931820	    -44.18175656	    -16.23991654	     87.82901288	      2.92501881	      6.56342205	     -6.80617337
      2.00000000	      1.72358385	      6.48606580	     -5.52536561	     -0.14294430	      1.00287704	      0.00854336	    -19.80825034	    -11.64854789	    -24.76269144	     -8.02311995	     10.02428872	      3.35112731	     59.69163545	    -41.36312856	     49.48167250	     85.25546625	     -0.61026836	      9.88059644	      8.57059377	     -0.67605563	     -2.78364718	     -2.66130642	     -3.77216293	     -1.00380008	      0.93101723	     44.24207136	    -43.28398792	    -16.07449380	     87.75909602	      1.91561132	      7.53668405	     -5.35320836
      2.01000000	      1.79069845	      6.48306984	     -5.31362843	     -0.14310889	      1.00307322	      0.00825448	    -19.70993490	    -11.91739170	    -24.54590246	     -8.27057369	     10.03768153	      3.49434831	     59.62532192	    -41.06693651	     49.32680318	     84.72390325	     -0.63086973	      9.68260578	      8.61372054	     -0.60226810	     -3.01049894	     -2.84476353	     -3.56281184	     -0.99559840	      0.93349449	     44.22365897	    -42.92154726	    -16.10442480	     87.38694655	      1.88205706	      7.58840747	     -5.20157788
